<svg id="Layer_1" data-name="Layer 1" xmlns="http://www.w3.org/2000/svg" viewBox="0 0 246.21 92.72"><defs><style>.cls-1{fill:#9b6442;}</style></defs><path d="M126.66,259.21a1,1,0,0,0,.75-.34c.59-.41.59-1.09.68-1.76,2.34-15.19,5.12-30,8.72-45a2.23,2.23,0,0,1,2.1-2c1.76-.26,3.61-.42,5.37-.67s3.53-.43,5.29-.59c2-.26,4-.51,6.05-.67l6-.51,1.09-.25a.92.92,0,0,0,.58-1.09.88.88,0,0,0-.75-.76h-1.93c-2.85.26-5.71.59-8.56.84s-5.79.67-8.65.93c-.75.08-1.43.16-2.1.25s-1.26.25-1.76.33h-.34c-1.09,0-1.34-.25-1.09-1.17l.34-1.85a1.26,1.26,0,0,0-.59-1.43,1.16,1.16,0,0,0-1.17.93c-.26.92-.42,1.76-.67,2.68-.26,1.26-.93,1.6-2,1.85-2.6.42-5.2,1-7.81,1.59l-12.84,2.78-1.26.25a2.68,2.68,0,0,0-1.09.58.68.68,0,0,0-.17.34.65.65,0,0,1-.08.42c0,.59.76.67,1.17.67a2.46,2.46,0,0,0,.76-.08c.25-.09.5-.09.75-.17,2.44-.5,4.79-1,7.14-1.59s4.7-1,7.13-1.43a51.71,51.71,0,0,1,6.13-1.26H134c.59,0,.84.33.68.92s-.26,1.18-.34,1.6c-2.6,10.41-4.7,20.73-6.47,31.22l-2,12.18a2.8,2.8,0,0,0,0,1.67A.68.68,0,0,0,126.66,259.21Z" transform="translate(-110.71 -199.19)"/><path d="M141.18,253.67a1.33,1.33,0,0,0,1.17-.67,19.94,19.94,0,0,0,1.51-2.61c.76-1.42,1.43-2.76,2.1-4.11s1.26-2.68,1.93-4a21.77,21.77,0,0,1,3.78-5.37,1.69,1.69,0,0,1,1.43-.83,5.39,5.39,0,0,1,.58,1,8.13,8.13,0,0,0,.68,1,4,4,0,0,0,3.44,1.84c2.35,0,5.87-2.77,7.47-4.36a4.26,4.26,0,0,0,.75-1.09.81.81,0,0,0-.25-1,1.1,1.1,0,0,0-.67-.25c-.17,0-.25,0-.34.08a5.56,5.56,0,0,0-1.09.84c-1.42,1.17-4.36,3.61-5.87,3.61-.76,0-1.43-.5-2-1.51a2.87,2.87,0,0,1-.42-1,9.55,9.55,0,0,0-.5-.92,1.83,1.83,0,0,0-1.6-1,2.31,2.31,0,0,0-1,.25,17.85,17.85,0,0,0-6,7.06L143,247.21l-.08-.09H143a3.76,3.76,0,0,1,.09-2.68,62.38,62.38,0,0,1,2.68-7.73c.76-1.68,1.51-3.35,2.19-5a5.33,5.33,0,0,0,.42-1.85c.08-.42-.09-.67-.59-.84h-.25a1.07,1.07,0,0,0-.76.25c-.25.34-.42.76-.67,1.18-2.94,6.71-5.29,12.26-6.38,19.72a5.53,5.53,0,0,0-.08,1.1,5.33,5.33,0,0,1,.08,1.09,1.37,1.37,0,0,0,1,1.26c.08,0,.16,0,.16.08Z" transform="translate(-110.71 -199.19)"/><path d="M165.85,248.72c5.8,0,14.61-8.57,18.64-12.85a2.48,2.48,0,0,0,.67-.84,1,1,0,0,0-.25-1.26.8.8,0,0,0-.59-.25,1.4,1.4,0,0,0-.67.25l-.76.76c-.25.25-.58.5-.83.75-1,.93-2,1.85-2.94,2.78s-2,1.93-3,2.85c-2.44,2.27-6.3,5-9.66,5.62-1.59,0-2.51,0-2.85-1.93a4.55,4.55,0,0,1-.25-2.94.89.89,0,0,1,.67-.75c4-.42,9.32-5.37,10-9.48.25-1.94-.84-3.11-2.52-3.11h-.34a.51.51,0,0,1-.33.08c-4.45.68-7.72,6.55-9.15,10.49a11.67,11.67,0,0,0-.59,3.87,6.83,6.83,0,0,0,.51,2.85A4,4,0,0,0,165.85,248.72Zm-.75-10.33c-.09.09-.25,0-.5-.08-.09,0-.17-.17-.17-.42.92-2.61,3.78-6.8,6.55-7.22.41-.08.67.08.75.67C171.73,234,167.28,237.22,165.1,238.39Z" transform="translate(-110.71 -199.19)"/><path d="M180.46,259c3.69,0,6.21-6.88,6.46-10.41a4.07,4.07,0,0,1,1.68-2.69l7-5c2.1-1.59,4.2-3,6.46-4.61a4.91,4.91,0,0,0,1.35-1.27c.42-.41.33-.83-.17-1.26a.8.8,0,0,0-.59-.25,1.4,1.4,0,0,0-.75.25,1.88,1.88,0,0,1-.76.51l-12.17,8.56a8.71,8.71,0,0,1-1.26.76,3.73,3.73,0,0,1-.42-.76,81.78,81.78,0,0,0-1.34-9,6.83,6.83,0,0,1-.17-1.34,7.48,7.48,0,0,1,.08-1.34,6.25,6.25,0,0,1,6-5.71c.25,0,.42,0,.5-.09a.81.81,0,0,0,.33-1.34,2.22,2.22,0,0,0-2-.67,5,5,0,0,0-2.6.75c-2.94,2.1-4.7,4.79-4.45,8.57a23,23,0,0,0,.42,3.27,39.12,39.12,0,0,1,1,7.55,3.94,3.94,0,0,1-1.52,3.61c-2,1.35-5.37,5.54-5.79,7.81a3.27,3.27,0,0,0,1.35,3.61A2.8,2.8,0,0,0,180.46,259Zm.17-2.35a.39.39,0,0,1-.42-.25,1,1,0,0,1-.26-.67.75.75,0,0,1,0-.59,12.28,12.28,0,0,1,4.2-5.29,9.06,9.06,0,0,1-2.94,6.55A.76.76,0,0,1,180.63,256.61Z" transform="translate(-110.71 -199.19)"/><path d="M231.08,256.19h.25c.5,0,.83-.17.92-.42s.17-.51.25-.76.17-.58.25-.83c2.52-7.65,4.87-14.28,11.42-19.23a11.81,11.81,0,0,1,2.69-1.43c.08-.08.25-.08.5-.08.59,0,.92.33.92,1.09a15.73,15.73,0,0,1-.75,4.87,6,6,0,0,1-2.52,3.78c-2.27,1.76-6.3,5.12-7,7.89a1.56,1.56,0,0,0,1.68,1.93c2.77-.25,6.47-5.2,7.64-7.55a8.34,8.34,0,0,1,3.44-3.79,107.39,107.39,0,0,1,9.57-5.28c.42-.25.92-.42,1.34-.67s.93-.51,1.34-.76a1,1,0,0,0,.59-1.34c-.08-.42-.42-.59-.92-.59-.25,0-.42,0-.5.08a3.77,3.77,0,0,0-.76.34,106.83,106.83,0,0,0-9.74,5c-.17.08-.33.25-.5.33a1,1,0,0,1-.67.26h-.26a.55.55,0,0,1-.16-.68,1.69,1.69,0,0,0,.08-.67c.08-.59.17-1.17.26-1.76a6.48,6.48,0,0,0,0-1.76c-.09-2.1-.93-3.11-2.61-3.11a4.83,4.83,0,0,0-1.42.25,7.94,7.94,0,0,0-1.77.76c-.58.34-1.09.67-1.68,1a27.66,27.66,0,0,0-7,7.64,7.75,7.75,0,0,0-.51.92,1.31,1.31,0,0,1-1,.68c.42-5.21,2.94-14.61,5.37-19,.25-.59.51-1.1.76-1.68s.51-1,.76-1.6a161.49,161.49,0,0,0,6.38-17,10.85,10.85,0,0,0,.5-2.44,1.24,1.24,0,0,0-.59-1.42c-.08-.09-.25-.09-.42-.09a1,1,0,0,0-.92.59c-.67.92-1.26,1.77-1.85,2.77a187.19,187.19,0,0,0-9.32,26.36,48.56,48.56,0,0,0-2.1,8.47c-.41,2.77-.92,5.46-1.34,8.15s-.84,5.37-1.09,8.14a12,12,0,0,0-.17,1.68A.88.88,0,0,0,231.08,256.19Z" transform="translate(-110.71 -199.19)"/><path d="M263.47,248.72c5.8,0,14.61-8.57,18.64-12.85a2.48,2.48,0,0,0,.67-.84,1,1,0,0,0-.25-1.26.8.8,0,0,0-.59-.25,1.4,1.4,0,0,0-.67.25l-.76.76c-.25.25-.58.5-.83.75-1,.93-2,1.85-2.94,2.78s-2,1.93-3,2.85c-2.44,2.27-6.3,5-9.66,5.62-1.59,0-2.52,0-2.85-1.93a4.55,4.55,0,0,1-.25-2.94.89.89,0,0,1,.67-.75c4-.42,9.32-5.37,10-9.48.25-1.94-.84-3.11-2.52-3.11h-.34a.51.51,0,0,1-.33.08c-4.45.68-7.72,6.55-9.15,10.49a11.67,11.67,0,0,0-.59,3.87,6.83,6.83,0,0,0,.51,2.85A4,4,0,0,0,263.47,248.72Zm-.75-10.33c-.09.09-.25,0-.5-.08-.09,0-.18-.17-.18-.42.93-2.61,3.79-6.8,6.56-7.22.41-.08.67.08.75.67C269.35,234,264.9,237.22,262.72,238.39Z" transform="translate(-110.71 -199.19)"/><path d="M279.09,245c1.09,0,2.51-1.17,3.27-1.84a68.15,68.15,0,0,0,5.87-6.21,9.48,9.48,0,0,0,.84-.92,3.15,3.15,0,0,1,1.26-.85,27.07,27.07,0,0,0-1.08,6.72c0,1.59.67,2.43,2.09,2.43a2,2,0,0,0,.76-.08c3.53-.59,9.48-6.21,11.92-8.65l.33-.34c.09-.08.09-.16.17-.25.17-.58.08-1-.34-1.26a.76.76,0,0,0-.58-.25c-.09,0-.17.09-.42.17a4.33,4.33,0,0,0-.67.51c-.25.25-.51.42-.76.67a24.51,24.51,0,0,0-2,1.76c-.67.59-1.34,1.26-2.09,1.85a24.38,24.38,0,0,1-3.11,2.26c-.75.42-1.51.76-2.26,1.1-.09.08-.17.08-.34.08-.34,0-.5-.26-.5-.76,0-3.6,2.6-9.73,4.2-12.92a7.15,7.15,0,0,1,.58-1.18,10.27,10.27,0,0,0,.5-1.09c.25-.76.17-1.34-.42-1.68a3.6,3.6,0,0,0-.5-.17,1.62,1.62,0,0,0-1,.59,4.7,4.7,0,0,0-.58.84,11.05,11.05,0,0,1-.67.92c-.51.67-1,1.35-1.43,2s-1,1.34-1.51,1.93c-.34.42-.59.67-.76.67a4.4,4.4,0,0,1-.76-.42,4,4,0,0,0-2.51-1,4.34,4.34,0,0,0-2.77,1.09,5.9,5.9,0,0,0-1.26,1.1c-2.52,2.51-5.29,7.47-5.29,11.16C277.32,244.35,278,245,279.09,245Zm.75-3c0-.08,0-.08-.08-.08l-.09-.08a15.2,15.2,0,0,1,5-8.9,3.82,3.82,0,0,1,2-1,2.26,2.26,0,0,1,1.18.42.9.9,0,0,1,.33,1.17,1,1,0,0,1-.33.43,59.54,59.54,0,0,1-7.22,7.8A1,1,0,0,1,279.84,242Z" transform="translate(-110.71 -199.19)"/><path d="M318.2,245.78a2.69,2.69,0,0,0,.84-.08c4.37-.68,9.65-6.47,12.51-9.83a6,6,0,0,0,.59-.92c.25-.42.08-.75-.34-1.18a.8.8,0,0,0-.59-.25.7.7,0,0,0-.42.17,14.92,14.92,0,0,0-1.59,1.59c-2,2.19-7.73,8.32-10.66,8.32-.67,0-1.09-.51-1.17-1.51a11.79,11.79,0,0,1,0-2.52,36.54,36.54,0,0,1,1.59-7.72c.08-.42.25-.84.33-1.26s.17-.76.26-1.18a.93.93,0,0,0-.59-1.09,2.39,2.39,0,0,0-.59-.17.88.88,0,0,0-.67.34,16.34,16.34,0,0,0-1.18,1.17l-1.17,1.18a60,60,0,0,1-7.89,8,11.3,11.3,0,0,1-1.26.93c-.42.33-.92.67-1.35,1a1.43,1.43,0,0,1-.67.33c-.16,0-.25,0-.33-.08a.43.43,0,0,1-.34-.42v-.51A23.47,23.47,0,0,1,306,232.6c.33-.5.59-1,.84-1.42a.92.92,0,0,0-.17-1.43,1,1,0,0,0-.67-.26,1.46,1.46,0,0,0-.93.51l-.67.92a24.85,24.85,0,0,0-3,9.32,5,5,0,0,0,.08,1.93,1.73,1.73,0,0,0,1.85,1.68,3.9,3.9,0,0,0,.84-.17c2.94-1.26,5.71-3.86,8-6.12.43-.43.84-.76,1.26-1.18s.68-.76,1.09-1.18c.09-.08.26-.25.42-.42a.53.53,0,0,1,.51-.25h.17c.25.09.42.25.33.5a2.12,2.12,0,0,0-.17.68c-.08.75-.16,1.59-.25,2.35s-.25,1.42-.34,1.93C315.09,242.59,315.27,245.78,318.2,245.78Z" transform="translate(-110.71 -199.19)"/><path d="M323.91,255.85c.67,0,2.94-2.6,3.44-3.27,2.69-3,5.38-6.05,8.06-9,.25-.25.42-.42.67-.42a.86.86,0,0,1,.67.33,24,24,0,0,0,2.86,3,6.27,6.27,0,0,0,3.77,1.35c2.27,0,3.95-1.43,5.54-2.77a61.91,61.91,0,0,0,7.56-9.4,5,5,0,0,0,.42-1c.08-.25-.09-.59-.42-.93a.8.8,0,0,0-.59-.25.47.47,0,0,0-.42.25,12.2,12.2,0,0,0-1.26,1.43,88.12,88.12,0,0,1-5.62,7.05,11.36,11.36,0,0,1-3.11,2.69,3.51,3.51,0,0,1-2,.76,4,4,0,0,1-2.51-1,11.56,11.56,0,0,1-2.6-2.77,1.82,1.82,0,0,1-.5-1,1.92,1.92,0,0,1,.5-.92c.75-1,1.59-2,2.43-3s1.68-1.94,2.43-2.94a13.76,13.76,0,0,0,1.1-1.26.87.87,0,0,0-.17-1,.76.76,0,0,0-.59-.25h-.17a.31.31,0,0,1-.25.08,3,3,0,0,0-1,.67,8.71,8.71,0,0,1-.85.93c-.75.84-1.42,1.68-2.1,2.52s-1.42,1.67-2.18,2.43a1.22,1.22,0,0,1-.67.42c-1.09,0-3.1-5.12-3.35-5.62a16.45,16.45,0,0,0-.84-1.68.68.68,0,0,0-.68-.42.32.32,0,0,0-.25.08c-.42.26-.67.51-.67.76a2.49,2.49,0,0,0,.17,1.34,14.71,14.71,0,0,0,1.09,2.69c.42.84.93,1.67,1.34,2.52a12.47,12.47,0,0,0,.92,1.25,1.64,1.64,0,0,1,.43,1.35,18.33,18.33,0,0,1-2.86,3.69L324,253.08c-.25.26-.42.51-.67.76a2.34,2.34,0,0,0-.33.84.92.92,0,0,0,.33,1A2.19,2.19,0,0,0,323.91,255.85Z" transform="translate(-110.71 -199.19)"/><path class="cls-1" d="M163.5,291.76l-.11,0c1,.21,1.55-.22,1.55-1.32-.05-2.89-.08-5.38-.08-7.42,0-1,0-1.94,0-2.76s0-1.59,0-2.24c-.06-1.31-.08-2.35-.08-3.09s-.11-1.25-.17-1.64a2,2,0,0,0-.32-.65l-.5-.17a3.15,3.15,0,0,0-.82.09.71.71,0,0,0-.46.57,2.73,2.73,0,0,0-.06.49v3.69c0,.27,0,.55,0,.79s0,.49,0,.71c0,.44-.06.85-.08,1.18a1.12,1.12,0,0,1-.16.59l-1.43.09-.38.05-.41.08a1.82,1.82,0,0,1-.87,0v-2.62c0-.77,0-1.45,0-2.05a14,14,0,0,0-.28-2.62c-.16-.55-.4-.88-.73-1a3.61,3.61,0,0,0-1.42.17,4.75,4.75,0,0,0-.16,1.31v.84c0,.31,0,.63,0,1,0,.71,0,1.48.09,2.29,0,.44,0,.88,0,1.34s0,1-.05,1.45a6.64,6.64,0,0,0-.55.46.42.42,0,0,0,0,.66c.06.05.11.14.19.22a1.16,1.16,0,0,0,.25.24l.08.09v.05c0,1,.06,1.86.08,2.59s.06,1.4.11,1.91.06,1,.06,1.4,0,.71.05,1a3.47,3.47,0,0,0,.11,1,.45.45,0,0,0,.25.27,1.28,1.28,0,0,0,.76.25,1.52,1.52,0,0,0,.77-.19.53.53,0,0,0,.35-.39c0-.08,0-.16,0-.27V286.3c0-.43-.06-.82-.06-1.17v-1.56a2.43,2.43,0,0,1,0-.49,1.33,1.33,0,0,1,.19-.6c1-.08,2.1-.19,3.17-.33.05.22.11.41.16.58s0,.21,0,.38v.59c0,.25,0,.55,0,.88s0,.71,0,1.15c0,.87-.06,2.07-.09,3.66a5.89,5.89,0,0,0,.09,1.17,1.75,1.75,0,0,0,.19.68.56.56,0,0,0,.33.36A.66.66,0,0,0,163.5,291.76Z" transform="translate(-110.71 -199.19)"/><path class="cls-1" d="M180.29,291.81l-.14-.1a.92.92,0,0,0,.6-.36,1.45,1.45,0,0,0,.14-.76c0-.06,0-.36-.08-.85a6,6,0,0,1-.11-.82c0-.3-.06-.63-.08-1s-.09-.74-.14-1.17-.08-.87-.14-1.37c-.11-.93-.22-1.91-.33-2.95,0-.49-.13-1-.18-1.5s-.14-1-.2-1.53c-.16-1-.3-1.91-.41-2.78-.08-.42-.16-.82-.22-1.21s-.16-.73-.24-1.06-.19-.6-.25-.85-.16-.4-.21-.57a1.34,1.34,0,0,0-.25-.27,1.21,1.21,0,0,0-.38-.14l-.33,0c-.11,0-.25,0-.38,0h-1.21a.73.73,0,0,0-.76.55,13.66,13.66,0,0,0-.41,1.53c-.13.55-.24,1.12-.35,1.72-.22,1.17-.41,2.38-.58,3.58-.1.6-.19,1.15-.24,1.69s-.17,1-.22,1.5c-.17,1-.3,1.67-.41,2.11a.54.54,0,0,1-.25.05,1.35,1.35,0,0,0-.24.06l-.17.08-.13.08a.38.38,0,0,0-.11.3,2.57,2.57,0,0,1,0,.3,1.33,1.33,0,0,0-.08.3.24.24,0,0,0,.08.27.39.39,0,0,0,.36.14h.41a.68.68,0,0,1,0,.24c-.11.83-.19,1.51-.25,2a3.88,3.88,0,0,0-.08,1.31.72.72,0,0,0,.33.68,1.21,1.21,0,0,0,1,.16.85.85,0,0,0,.9-.54c.06-.17.14-.44.25-.79,0-.17.08-.33.13-.55s.11-.44.2-.71a6.65,6.65,0,0,0,.16-1,2.13,2.13,0,0,1,.33-1.06,3.19,3.19,0,0,0,.52-.06,2.21,2.21,0,0,0,.54-.08l1.07-.17c.05.28.08.52.14.79s.07.55.13.83.05.54.08.79.06.52.11.76c.06.47.11.87.17,1.26a2.49,2.49,0,0,0,.16.73.76.76,0,0,0,.68.49A2,2,0,0,0,180.29,291.81Zm-4.54-7.09.14,0a2.91,2.91,0,0,1,0-1.26,6.18,6.18,0,0,1,.11-.85,8.43,8.43,0,0,1,.11-.9,7.55,7.55,0,0,1,.13-.85c.06-.27.11-.51.17-.76a6.34,6.34,0,0,1,.24-.82s.05.19.11.46.11.61.16,1l.39,2.46c0,.21.05.38.08.54a2.18,2.18,0,0,0,0,.41l.06.38a5.07,5.07,0,0,1-.9.09c-.17,0-.3.05-.41.05S175.86,284.72,175.75,284.72Z" transform="translate(-110.71 -199.19)"/><path class="cls-1" d="M189.85,291.79l0,0a1.22,1.22,0,0,0,.68-.16.57.57,0,0,0,.33-.49,4.86,4.86,0,0,0,.06-1,11.35,11.35,0,0,1-.08-1.58c-.09-1.2-.14-2.27-.2-3.25s-.07-1.86-.11-2.62-.07-1.45-.07-2.07-.06-1.18-.06-1.67,0-.88,0-1.26V275.4c0-.16,0-.35,0-.51s0-.36,0-.52c-.05-.33-.11-.8-.16-1.37a1.15,1.15,0,0,0-.47-.82,1.51,1.51,0,0,0-.79-.24,1.37,1.37,0,0,0-.74.22.71.71,0,0,0-.38.57.92.92,0,0,0,0,.3v3.14c0,.33,0,.71.06,1.09,0,.82,0,1.8.08,2.95,0,.35,0,.68,0,1V284c0,.22,0,.43,0,.65s0,.47,0,.71a4.47,4.47,0,0,0,.08.82c.06.55.11,1.23.17,2s.14,1.64.25,2.73a.88.88,0,0,0,.27.66A1.44,1.44,0,0,0,189.85,291.79Z" transform="translate(-110.71 -199.19)"/><path class="cls-1" d="M205.6,291.74l0-.14c.05,0,.13-.06.24-.17l.28-.27q-1-1.56-1.89-3c-.32-.49-.65-1-1-1.45s-.71-.95-1.06-1.44l.18-.2a1.05,1.05,0,0,0,.17-.22l.16-.18,1.64-1.64a6.5,6.5,0,0,0,1.48-2.22,7,7,0,0,0,.57-2.37,7.11,7.11,0,0,0-.22-2.29,5.57,5.57,0,0,0-.9-1.92,5.83,5.83,0,0,0-1.47-1.31,4,4,0,0,0-2-.49,15.62,15.62,0,0,0-2.71.16,1.42,1.42,0,0,0-1.14.74,3.24,3.24,0,0,0-.22,1.72c.06.77.08,1.8.08,3.06v3.28c-.05,1.09-.05,2.18,0,3.28a40.67,40.67,0,0,0,.16,4.09,7.81,7.81,0,0,0,.33,2.07c.14.44.28.69.44.74a.43.43,0,0,0,.25.09,1,1,0,0,0,.27.05,2,2,0,0,0,1.1-.11.77.77,0,0,0,.4-.6,3.75,3.75,0,0,0,0-1.17,4.15,4.15,0,0,1-.08-.82,10,10,0,0,1-.05-1l.08-.09s.08-.05.11-.1l.4.4c.06.09.15.17.2.25a1.05,1.05,0,0,0,.24.3,3.57,3.57,0,0,1,.25.38c.08.14.16.28.27.44s.2.35.31.55a6,6,0,0,0,.35.65,2.05,2.05,0,0,0,1.15,1A2.25,2.25,0,0,0,205.6,291.74Zm-5-7.76,0,0a5.26,5.26,0,0,1-.22-1.72c0-.39-.05-.82-.05-1.26v-1.39c0-.49,0-1,0-1.5s0-1,0-1.59c-.05-1.06-.11-2.07-.16-3a3.23,3.23,0,0,1,1.72.13,2.8,2.8,0,0,1,1.17,1.07,5.15,5.15,0,0,1,.76,2,7,7,0,0,1,0,2,8.6,8.6,0,0,1-.49,1.85,13.05,13.05,0,0,1-.82,1.56,7,7,0,0,1-1,1.2A2.7,2.7,0,0,1,200.6,284Z" transform="translate(-110.71 -199.19)"/><path class="cls-1" d="M223,290.31l.11-.08a2.43,2.43,0,0,1-.49-1.2,4.86,4.86,0,0,1-.09-.63,1.36,1.36,0,0,0-.3-.65,1.88,1.88,0,0,0-.65-.25,3.34,3.34,0,0,0-.74.06,1.2,1.2,0,0,0-.66.46,3.5,3.5,0,0,0,.44,2.1,3.16,3.16,0,0,0,1.31,1.23,3.72,3.72,0,0,0,1.81.46,4.37,4.37,0,0,0,1.91-.32,4.59,4.59,0,0,0,1.66-1.07,4,4,0,0,0,1-1.77,6.34,6.34,0,0,0,0-2.46,10.8,10.8,0,0,0-1.39-3.11c-.25-.35-.5-.71-.71-1.07s-.47-.71-.69-1.09l-1.39-2.13a4.85,4.85,0,0,1-.63-1.34,8.54,8.54,0,0,1-.33-1.58,4.58,4.58,0,0,1,.09-1.5,2,2,0,0,1,.65-1.07,2.15,2.15,0,0,1,1.07.52,2.87,2.87,0,0,1,.49,1,5.73,5.73,0,0,1,.08.87v.74a.66.66,0,0,0,.17.49.78.78,0,0,0,.57.17,1.09,1.09,0,0,0,.93-.28,1.56,1.56,0,0,0,.41-.82,4.18,4.18,0,0,0,0-1.12c-.06-.19-.09-.38-.14-.57s-.11-.38-.16-.6a1.66,1.66,0,0,0-.44-.49,5,5,0,0,0-.9-.55,7.67,7.67,0,0,0-1.2-.41,6,6,0,0,0-1.34-.13,2.62,2.62,0,0,0-1.78.73,4,4,0,0,0-.9,1.67,5.44,5.44,0,0,0-.08,2.1,5.13,5.13,0,0,0,.71,2,20,20,0,0,0,1.39,2.3,17.45,17.45,0,0,0,1.07,1.64,7.37,7.37,0,0,0,.41.65,5.91,5.91,0,0,0,.35.58,12.52,12.52,0,0,1,.58,1.11,10.31,10.31,0,0,1,.41,1.26c.11.49.22,1,.32,1.64a2.55,2.55,0,0,1-.19,1.55,2.6,2.6,0,0,1-.84,1,2.21,2.21,0,0,1-1.1.33A.91.91,0,0,1,223,290.31Z" transform="translate(-110.71 -199.19)"/><path class="cls-1" d="M243.8,291.81l-.13-.1a1,1,0,0,0,.6-.36,1.46,1.46,0,0,0,.13-.76c0-.06,0-.36-.08-.85a8.19,8.19,0,0,1-.11-.82c0-.3-.05-.63-.08-1s-.08-.74-.13-1.17-.09-.87-.15-1.37c-.1-.93-.21-1.91-.32-2.95-.06-.49-.14-1-.19-1.5s-.14-1-.19-1.53c-.17-1-.31-1.91-.42-2.78-.07-.42-.16-.82-.21-1.21s-.17-.73-.25-1.06a7.18,7.18,0,0,1-.24-.85c-.09-.22-.16-.4-.22-.57a1.11,1.11,0,0,0-.25-.27,1.21,1.21,0,0,0-.38-.14l-.33,0c-.1,0-.25,0-.38,0h-1.2a.72.72,0,0,0-.76.55,11.81,11.81,0,0,0-.42,1.53c-.13.55-.24,1.12-.35,1.72-.22,1.17-.41,2.38-.57,3.58-.11.6-.2,1.15-.25,1.69s-.16,1-.22,1.5c-.16,1-.3,1.67-.41,2.11a.53.53,0,0,1-.24.05,1.23,1.23,0,0,0-.25.06l-.16.08-.14.08a.41.41,0,0,0-.11.3c0,.17,0,.24,0,.3a.89.89,0,0,0-.09.3.24.24,0,0,0,.09.27c.07.11.18.14.35.14h.41a.68.68,0,0,1,0,.24c-.11.83-.19,1.51-.25,2a4.15,4.15,0,0,0-.08,1.31.72.72,0,0,0,.33.68,1.22,1.22,0,0,0,1,.16,1,1,0,0,0,.58-.13.9.9,0,0,0,.32-.41c.06-.17.14-.44.25-.79,0-.17.08-.33.14-.55a7,7,0,0,1,.19-.71,6.65,6.65,0,0,0,.16-1,2.13,2.13,0,0,1,.33-1.06,3.07,3.07,0,0,0,.52-.06,2.35,2.35,0,0,0,.55-.08l1.06-.17c0,.28.08.52.14.79s.08.55.13.83.06.54.09.79a4.48,4.48,0,0,0,.11.76c0,.47.11.87.16,1.26a3.44,3.44,0,0,0,.16.73.78.78,0,0,0,.69.49A2,2,0,0,0,243.8,291.81Zm-4.53-7.09.14,0a3,3,0,0,1-.06-1.26c0-.27.06-.58.11-.85s.06-.57.11-.9a7.55,7.55,0,0,1,.13-.85c.06-.27.11-.51.17-.76a4.65,4.65,0,0,1,.25-.82s0,.19.1.46.11.61.17,1l.38,2.46c0,.21,0,.38.08.54a1.55,1.55,0,0,0,.06.41l.05.38a5,5,0,0,1-.9.09,4.09,4.09,0,0,1-.41.05C239.52,284.69,239.38,284.72,239.27,284.72Z" transform="translate(-110.71 -199.19)"/><path class="cls-1" d="M258.6,291.74l-.05-.14a1.22,1.22,0,0,0,.65-.19.52.52,0,0,0,.19-.36.49.49,0,0,0-.21-.35,1,1,0,0,0-.58-.17c-.6,0-1.06,0-1.44,0a6.69,6.69,0,0,1-1,.09,3.18,3.18,0,0,1-.41,0h-.33a1.38,1.38,0,0,1-.65-.13,1,1,0,0,1-.33-.69,1.35,1.35,0,0,1-.06-.35v-.38c0-2.62-.08-4.89-.08-6.75V277.7c0-1.23,0-2.21-.08-2.92a4.5,4.5,0,0,0-.32-1.56,1,1,0,0,0-.72-.57,3.77,3.77,0,0,0-1.22.05,2.57,2.57,0,0,0-.5.17.88.88,0,0,0-.24.54,5.51,5.51,0,0,0,0,1.28c0,.6,0,1.37.07,2.33s0,2.21.09,3.74v5.49a12.13,12.13,0,0,0,.24,3.49,2.48,2.48,0,0,0,1.1,1.69,4.17,4.17,0,0,0,2.24.47C255.84,291.9,257.07,291.85,258.6,291.74Z" transform="translate(-110.71 -199.19)"/><path class="cls-1" d="M269.44,291.49v.05a4.42,4.42,0,0,0,2.49.06,3.42,3.42,0,0,0,1.66-1.72c.06-.11.11-.22.17-.36L274,289l.4-1.23c.06-.21.14-.46.2-.71s.11-.52.16-.79a17.33,17.33,0,0,0,.25-1.72c0-.49.08-1.06.16-1.69,0-.3.06-.63.08-1s.06-.68.11-1.06c.05-.71.09-1.43.09-2.19,0-.36,0-.71-.06-1.06s-.11-.71-.16-1.1a9.29,9.29,0,0,0-.66-2,7.26,7.26,0,0,0-1.23-1.64,1.67,1.67,0,0,0-1-.35h-1.45a3.8,3.8,0,0,0-1.72.49,3.52,3.52,0,0,0-1.14,1.23,6.21,6.21,0,0,0-.71,1.8c-.17.71-.3,1.42-.41,2.13s-.19,1.5-.25,2.26c-.05.39-.08.77-.11,1.12s-.08.72-.11,1.05-.08.76-.11,1.14,0,.77,0,1.12,0,.74,0,1.12a8.89,8.89,0,0,0,.08,1.15,5.19,5.19,0,0,0,.53,1.8,6.14,6.14,0,0,0,1,1.53,2.64,2.64,0,0,0,.68.63A2.83,2.83,0,0,0,269.44,291.49Zm1-1.12.11.11a4.61,4.61,0,0,1-1.12-1.39,4.25,4.25,0,0,1-.54-1.67,11.7,11.7,0,0,1-.25-2.54c0-.46,0-.93,0-1.42a12,12,0,0,1,.06-1.45c0-.49.05-.95.11-1.45s.08-.92.16-1.41a15.91,15.91,0,0,1,.49-2.54,8.79,8.79,0,0,1,.66-1.92,1.91,1.91,0,0,1,.82-1,1.42,1.42,0,0,1,.63.47,7,7,0,0,1,.32.71c.11.38.25.73.36,1.12s.22.73.33,1.09a7.1,7.1,0,0,1,.27,2.29c0,1.28,0,2.54-.08,3.74a29.85,29.85,0,0,1-.41,3.75,9.11,9.11,0,0,1-.38,1.3,6.79,6.79,0,0,0-.28.63c-.11.22-.19.41-.27.6a3.32,3.32,0,0,1-.33.55A1.53,1.53,0,0,1,270.42,290.37Z" transform="translate(-110.71 -199.19)"/><path class="cls-1" d="M285.5,291.49v.05a4.38,4.38,0,0,0,2.48.06,3.47,3.47,0,0,0,1.67-1.72c.05-.11.11-.22.16-.36L290,289l.41-1.23c.06-.21.14-.46.19-.71s.11-.52.17-.79a14.85,14.85,0,0,0,.24-1.72c0-.49.08-1.06.17-1.69,0-.3.05-.63.08-1s.05-.68.11-1.06c.05-.71.08-1.43.08-2.19,0-.36,0-.71-.06-1.06s-.1-.71-.16-1.1a9.26,9.26,0,0,0-.65-2,7.26,7.26,0,0,0-1.23-1.64,1.67,1.67,0,0,0-1-.35h-1.45a3.76,3.76,0,0,0-1.72.49,3.65,3.65,0,0,0-1.15,1.23,6.83,6.83,0,0,0-.71,1.8c-.16.71-.3,1.42-.41,2.13s-.19,1.5-.25,2.26c0,.39-.07.77-.1,1.12s-.08.72-.11,1.05-.08.76-.11,1.14,0,.77,0,1.12,0,.74,0,1.12a8.89,8.89,0,0,0,.08,1.15,5,5,0,0,0,.52,1.8,6.18,6.18,0,0,0,1,1.53,2.49,2.49,0,0,0,.68.63A2.63,2.63,0,0,0,285.5,291.49Zm1-1.12.11.11a4.46,4.46,0,0,1-1.12-1.39,4.25,4.25,0,0,1-.54-1.67,11.7,11.7,0,0,1-.25-2.54c0-.46,0-.93,0-1.42a12,12,0,0,1,.06-1.45c0-.49.05-.95.11-1.45a10.15,10.15,0,0,1,.16-1.41,15.91,15.91,0,0,1,.49-2.54,8.3,8.3,0,0,1,.65-1.92,1.93,1.93,0,0,1,.83-1,1.34,1.34,0,0,1,.62.47,6.91,6.91,0,0,1,.33.71c.11.38.24.73.35,1.12s.22.73.33,1.09a7.09,7.09,0,0,1,.28,2.29c0,1.28,0,2.54-.09,3.74a28.1,28.1,0,0,1-.41,3.75,8,8,0,0,1-.38,1.3,6.63,6.63,0,0,0-.27.63c-.11.22-.19.41-.27.6a3.32,3.32,0,0,1-.33.55A1.68,1.68,0,0,1,286.48,290.37Z" transform="translate(-110.71 -199.19)"/><path class="cls-1" d="M306,291.68l.27.08a1.45,1.45,0,0,0,.85-.19,1.32,1.32,0,0,0,.41-.73q.17-.82.33-2.22l.1-1.42c0-.46.06-.95.11-1.44.06-1,.11-1.91.17-2.79,0-.44,0-.79,0-1.12a5.21,5.21,0,0,1,.06-.76c0-.64.05-1.21.05-1.75s0-1,0-1.48-.05-.82-.05-1.2-.06-.68-.08-1a4.24,4.24,0,0,1-.09-.85c0-.24-.05-.49-.05-.73a4,4,0,0,1,.08-1.4.54.54,0,0,0-.27-.57,1.66,1.66,0,0,0-.74-.19,1.26,1.26,0,0,0-.79.25.75.75,0,0,0-.33.82,12.81,12.81,0,0,0,.08,1.71c0,.42.06.74.08,1a6.45,6.45,0,0,0,.09,1v1.71c-.06,1.43-.09,2.63-.09,3.61s-.05,1.77-.08,2.41c0,.32-.05.59-.05.84v.63c0,.19,0,.35,0,.49s0,.27,0,.38l-.08.49-.11.39a16.42,16.42,0,0,1-.87-3.12c-.11-.57-.22-1.17-.33-1.77s-.22-1.23-.33-1.89c-.22-1.25-.46-2.51-.74-3.76a19.23,19.23,0,0,0-1.06-3.39,2.41,2.41,0,0,0-.79-1.07,2.48,2.48,0,0,0-1.29-.19,2.07,2.07,0,0,0-.9.33,2.12,2.12,0,0,0-.62,1,10.6,10.6,0,0,0-.41,2.05c-.11.87-.19,2-.25,3.36s-.08,3-.08,5V291l.49.24a.72.72,0,0,0,.66,0l.19-.08.24-.11c.11-.93.22-1.91.33-2.95,0-.51.06-1,.08-1.55s.06-1,.11-1.56.05-1,.05-1.53,0-1,.06-1.5,0-1,0-1.42,0-.9.05-1.34c0-.82,0-1.58.08-2.29a6.77,6.77,0,0,1,.17-1.64,6.32,6.32,0,0,1,.6,2c.06.46.13.95.19,1.5s.14,1.12.25,1.75c.16,1.3.38,2.7.65,4.23.14.79.3,1.58.52,2.4a25,25,0,0,0,.74,2.51,1,1,0,0,0,.13.41l.17.41a1.5,1.5,0,0,0,.82,1A1.77,1.77,0,0,0,306,291.68Z" transform="translate(-110.71 -199.19)"/></svg>